<svg xmlns="http://www.w3.org/2000/svg" xmlns:xlink="http://www.w3.org/1999/xlink" width="30px" height="30px" viewBox="0 0 30 30" version="1.1">
<g id="surface1">
<path style=" stroke:none;fill-rule:nonzero;fill:rgb(0%,0%,0%);fill-opacity:1;" d="M 26.25 15 C 26.25 8.785156 21.214844 3.75 15 3.75 C 8.785156 3.75 3.75 8.785156 3.75 15 C 3.75 21.214844 8.785156 26.25 15 26.25 C 21.214844 26.25 26.25 21.214844 26.25 15 Z M 0 15 C 0 6.714844 6.714844 0 15 0 C 23.285156 0 30 6.714844 30 15 C 30 23.285156 23.285156 30 15 30 C 6.714844 30 0 23.285156 0 15 Z M 15 19.6875 C 17.589844 19.6875 19.6875 17.589844 19.6875 15 C 19.6875 12.410156 17.589844 10.3125 15 10.3125 C 12.410156 10.3125 10.3125 12.410156 10.3125 15 C 10.3125 17.589844 12.410156 19.6875 15 19.6875 Z M 15 6.5625 C 19.660156 6.5625 23.4375 10.339844 23.4375 15 C 23.4375 19.660156 19.660156 23.4375 15 23.4375 C 10.339844 23.4375 6.5625 19.660156 6.5625 15 C 6.5625 10.339844 10.339844 6.5625 15 6.5625 Z M 13.125 15 C 13.125 13.964844 13.964844 13.125 15 13.125 C 16.035156 13.125 16.875 13.964844 16.875 15 C 16.875 16.035156 16.035156 16.875 15 16.875 C 13.964844 16.875 13.125 16.035156 13.125 15 Z M 13.125 15 "/>
</g>
</svg>